<?xml version="1.0" encoding="UTF-8" standalone="no"?>
<!DOCTYPE svg PUBLIC "-//W3C//DTD SVG 1.1//EN" "http://www.w3.org/Graphics/SVG/1.1/DTD/svg11.dtd">
<svg width="456" height="456" viewBox="0 0 456 456" fill="none" xmlns="http://www.w3.org/2000/svg">
    <path d="M109.874 306.695H115.276V324.075C115.276 326.099 114.842 327.803 113.975 329.188C113.12 330.573 111.934 331.615 110.416 332.313C108.91 333.012 107.176 333.361 105.213 333.361C103.25 333.361 101.503 333.012 99.9736 332.313C98.4561 331.615 97.2637 330.573 96.3965 329.188C95.5413 327.803 95.1138 326.099 95.1138 324.075V306.695H100.534V324.075C100.534 325.256 100.72 326.219 101.094 326.966C101.467 327.713 102.003 328.261 102.702 328.61C103.412 328.959 104.249 329.134 105.213 329.134C106.201 329.134 107.038 328.959 107.724 328.61C108.423 328.261 108.953 327.713 109.314 326.966C109.687 326.219 109.874 325.256 109.874 324.075V306.695ZM124.616 305.232V333H119.413V305.232H124.616ZM136.938 313.452L128.446 323.136L123.894 327.743L121.997 323.985L125.61 319.396L130.687 313.452H136.938ZM131.536 333L125.754 323.967L129.35 320.823L137.534 333H131.536ZM147.904 315.747V318.655L137.696 322.034V319.125L147.904 315.747ZM145.338 305.25V333H140.099V305.25H145.338ZM161.074 328.592V319.884C161.074 319.257 160.972 318.722 160.767 318.276C160.562 317.818 160.243 317.463 159.81 317.21C159.388 316.957 158.84 316.831 158.166 316.831C157.587 316.831 157.088 316.933 156.666 317.138C156.244 317.33 155.919 317.613 155.69 317.987C155.462 318.348 155.347 318.776 155.347 319.27H150.144C150.144 318.438 150.337 317.65 150.722 316.903C151.108 316.156 151.668 315.5 152.402 314.934C153.137 314.355 154.01 313.904 155.022 313.579C156.046 313.253 157.19 313.091 158.455 313.091C159.972 313.091 161.321 313.344 162.501 313.85C163.682 314.355 164.609 315.114 165.284 316.126C165.97 317.138 166.313 318.402 166.313 319.92V328.285C166.313 329.357 166.38 330.236 166.512 330.922C166.645 331.597 166.837 332.187 167.09 332.693V333H161.833C161.58 332.47 161.387 331.808 161.255 331.013C161.134 330.206 161.074 329.399 161.074 328.592ZM161.761 321.094L161.797 324.039H158.888C158.202 324.039 157.605 324.117 157.1 324.274C156.594 324.431 156.178 324.653 155.853 324.942C155.528 325.219 155.287 325.545 155.13 325.918C154.986 326.291 154.914 326.701 154.914 327.146C154.914 327.592 155.016 327.996 155.221 328.357C155.425 328.706 155.721 328.983 156.106 329.188C156.491 329.381 156.943 329.477 157.461 329.477C158.244 329.477 158.924 329.32 159.502 329.007C160.081 328.694 160.526 328.309 160.839 327.851C161.165 327.393 161.333 326.96 161.345 326.55L162.718 328.754C162.526 329.248 162.261 329.76 161.923 330.29C161.598 330.82 161.183 331.32 160.677 331.79C160.171 332.247 159.563 332.627 158.852 332.928C158.141 333.217 157.298 333.361 156.323 333.361C155.082 333.361 153.956 333.114 152.944 332.621C151.945 332.115 151.15 331.422 150.56 330.543C149.981 329.652 149.692 328.64 149.692 327.508C149.692 326.484 149.885 325.575 150.271 324.78C150.656 323.985 151.222 323.316 151.969 322.774C152.728 322.22 153.673 321.805 154.805 321.528C155.937 321.239 157.25 321.094 158.744 321.094H161.761ZM181.869 328.736V305.25H187.108V333H182.393L181.869 328.736ZM169.511 323.461V323.082C169.511 321.588 169.68 320.233 170.017 319.017C170.354 317.788 170.848 316.734 171.499 315.855C172.149 314.976 172.95 314.295 173.901 313.813C174.853 313.332 175.937 313.091 177.153 313.091C178.298 313.091 179.297 313.332 180.152 313.813C181.02 314.295 181.754 314.982 182.356 315.873C182.971 316.752 183.465 317.794 183.838 318.999C184.211 320.191 184.482 321.498 184.651 322.919V323.75C184.482 325.111 184.211 326.376 183.838 327.544C183.465 328.712 182.971 329.736 182.356 330.615C181.754 331.482 181.02 332.157 180.152 332.639C179.285 333.12 178.273 333.361 177.117 333.361C175.901 333.361 174.817 333.114 173.865 332.621C172.926 332.127 172.131 331.434 171.48 330.543C170.842 329.652 170.354 328.604 170.017 327.399C169.68 326.195 169.511 324.882 169.511 323.461ZM174.714 323.082V323.461C174.714 324.268 174.775 325.021 174.895 325.719C175.028 326.418 175.238 327.038 175.527 327.58C175.828 328.11 176.214 328.526 176.684 328.827C177.165 329.116 177.75 329.26 178.436 329.26C179.327 329.26 180.062 329.062 180.64 328.664C181.218 328.255 181.658 327.694 181.959 326.984C182.272 326.273 182.453 325.454 182.501 324.527V322.16C182.465 321.401 182.356 320.721 182.176 320.119C182.007 319.504 181.754 318.98 181.417 318.547C181.092 318.113 180.682 317.776 180.188 317.535C179.707 317.294 179.135 317.174 178.472 317.174C177.798 317.174 177.22 317.33 176.738 317.644C176.256 317.945 175.865 318.36 175.563 318.89C175.274 319.42 175.058 320.046 174.913 320.769C174.781 321.48 174.714 322.25 174.714 323.082ZM222.319 319.233V320.48C222.319 322.479 222.048 324.274 221.506 325.864C220.964 327.454 220.2 328.809 219.212 329.929C218.224 331.037 217.044 331.886 215.671 332.476C214.31 333.066 212.798 333.361 211.136 333.361C209.486 333.361 207.975 333.066 206.602 332.476C205.241 331.886 204.06 331.037 203.061 329.929C202.061 328.809 201.284 327.454 200.73 325.864C200.188 324.274 199.917 322.479 199.917 320.48V319.233C199.917 317.222 200.188 315.427 200.73 313.85C201.272 312.26 202.037 310.905 203.024 309.785C204.024 308.665 205.204 307.809 206.565 307.219C207.938 306.629 209.45 306.334 211.1 306.334C212.762 306.334 214.274 306.629 215.635 307.219C217.008 307.809 218.188 308.665 219.176 309.785C220.175 310.905 220.946 312.26 221.488 313.85C222.042 315.427 222.319 317.222 222.319 319.233ZM216.845 320.48V319.197C216.845 317.8 216.719 316.572 216.466 315.512C216.213 314.452 215.84 313.561 215.346 312.838C214.852 312.115 214.25 311.573 213.539 311.212C212.828 310.839 212.015 310.652 211.1 310.652C210.185 310.652 209.372 310.839 208.661 311.212C207.963 311.573 207.366 312.115 206.873 312.838C206.391 313.561 206.023 314.452 205.771 315.512C205.518 316.572 205.391 317.8 205.391 319.197V320.48C205.391 321.865 205.518 323.094 205.771 324.166C206.023 325.225 206.397 326.123 206.891 326.857C207.384 327.58 207.987 328.128 208.697 328.501C209.408 328.875 210.221 329.062 211.136 329.062C212.052 329.062 212.865 328.875 213.575 328.501C214.286 328.128 214.882 327.58 215.364 326.857C215.846 326.123 216.213 325.225 216.466 324.166C216.719 323.094 216.845 321.865 216.845 320.48ZM231.1 305.232V333H225.896V305.232H231.1ZM243.421 313.452L234.93 323.136L230.377 327.743L228.48 323.985L232.093 319.396L237.17 313.452H243.421ZM238.019 333L232.238 323.967L235.833 320.823L244.017 333H238.019ZM250.864 317.716V333H245.661V313.452H250.557L250.864 317.716ZM256.754 313.326L256.664 318.149C256.411 318.113 256.104 318.083 255.742 318.059C255.393 318.023 255.074 318.005 254.785 318.005C254.05 318.005 253.412 318.101 252.87 318.294C252.34 318.475 251.894 318.746 251.533 319.107C251.183 319.468 250.918 319.908 250.738 320.426C250.569 320.944 250.473 321.534 250.449 322.196L249.401 321.871C249.401 320.606 249.527 319.444 249.78 318.384C250.033 317.312 250.401 316.379 250.882 315.584C251.376 314.789 251.978 314.175 252.689 313.741C253.4 313.308 254.213 313.091 255.128 313.091C255.417 313.091 255.712 313.115 256.013 313.163C256.314 313.199 256.561 313.253 256.754 313.326ZM267.847 333.361C266.329 333.361 264.968 333.12 263.764 332.639C262.559 332.145 261.535 331.464 260.692 330.597C259.861 329.73 259.223 328.724 258.777 327.58C258.332 326.424 258.109 325.195 258.109 323.895V323.172C258.109 321.69 258.32 320.335 258.741 319.107C259.163 317.878 259.765 316.812 260.548 315.909C261.343 315.006 262.306 314.313 263.438 313.832C264.571 313.338 265.847 313.091 267.269 313.091C268.654 313.091 269.882 313.32 270.954 313.777C272.026 314.235 272.923 314.885 273.646 315.729C274.381 316.572 274.935 317.583 275.308 318.764C275.681 319.932 275.868 321.233 275.868 322.666V324.834H260.331V321.365H270.755V320.968C270.755 320.245 270.623 319.601 270.358 319.035C270.105 318.457 269.72 317.999 269.202 317.662C268.684 317.324 268.021 317.156 267.214 317.156C266.528 317.156 265.938 317.306 265.444 317.607C264.95 317.909 264.547 318.33 264.233 318.872C263.932 319.414 263.703 320.052 263.547 320.787C263.402 321.51 263.33 322.305 263.33 323.172V323.895C263.33 324.677 263.438 325.4 263.655 326.062C263.884 326.725 264.203 327.297 264.613 327.779C265.034 328.261 265.54 328.634 266.13 328.899C266.733 329.164 267.413 329.296 268.172 329.296C269.111 329.296 269.985 329.116 270.792 328.754C271.611 328.381 272.315 327.821 272.905 327.074L275.435 329.82C275.025 330.41 274.465 330.977 273.754 331.519C273.056 332.061 272.213 332.506 271.225 332.855C270.237 333.193 269.111 333.361 267.847 333.361ZM289.4 327.598C289.4 327.225 289.292 326.888 289.075 326.586C288.858 326.285 288.454 326.008 287.864 325.755C287.286 325.49 286.449 325.25 285.353 325.033C284.365 324.816 283.444 324.545 282.589 324.22C281.746 323.882 281.011 323.479 280.385 323.009C279.771 322.54 279.289 321.986 278.939 321.347C278.59 320.697 278.416 319.956 278.416 319.125C278.416 318.306 278.59 317.535 278.939 316.812C279.301 316.09 279.813 315.451 280.475 314.897C281.15 314.331 281.969 313.892 282.932 313.579C283.908 313.253 285.004 313.091 286.22 313.091C287.918 313.091 289.376 313.362 290.592 313.904C291.821 314.446 292.76 315.193 293.411 316.144C294.073 317.083 294.404 318.155 294.404 319.36H289.201C289.201 318.854 289.093 318.402 288.876 318.005C288.671 317.595 288.346 317.276 287.9 317.047C287.467 316.806 286.901 316.686 286.202 316.686C285.624 316.686 285.124 316.788 284.703 316.993C284.281 317.186 283.956 317.451 283.727 317.788C283.51 318.113 283.402 318.475 283.402 318.872C283.402 319.173 283.462 319.444 283.583 319.685C283.715 319.914 283.926 320.125 284.215 320.317C284.504 320.51 284.877 320.691 285.335 320.859C285.805 321.016 286.383 321.16 287.069 321.293C288.479 321.582 289.737 321.961 290.845 322.431C291.953 322.889 292.833 323.515 293.483 324.31C294.133 325.093 294.458 326.123 294.458 327.399C294.458 328.267 294.266 329.062 293.88 329.784C293.495 330.507 292.941 331.139 292.218 331.681C291.496 332.211 290.628 332.627 289.617 332.928C288.617 333.217 287.491 333.361 286.238 333.361C284.42 333.361 282.878 333.036 281.613 332.386C280.361 331.735 279.409 330.91 278.759 329.911C278.12 328.899 277.801 327.863 277.801 326.803H282.733C282.757 327.514 282.938 328.086 283.275 328.52C283.625 328.953 284.064 329.266 284.594 329.459C285.136 329.652 285.72 329.748 286.347 329.748C287.021 329.748 287.581 329.658 288.027 329.477C288.472 329.284 288.81 329.031 289.039 328.718C289.279 328.393 289.4 328.02 289.4 327.598ZM297.006 323.425V323.045C297.006 321.612 297.211 320.293 297.62 319.089C298.03 317.872 298.626 316.819 299.409 315.927C300.192 315.036 301.155 314.343 302.299 313.85C303.444 313.344 304.756 313.091 306.238 313.091C307.719 313.091 309.038 313.344 310.194 313.85C311.351 314.343 312.32 315.036 313.103 315.927C313.898 316.819 314.5 317.872 314.91 319.089C315.319 320.293 315.524 321.612 315.524 323.045V323.425C315.524 324.846 315.319 326.165 314.91 327.381C314.5 328.586 313.898 329.64 313.103 330.543C312.32 331.434 311.357 332.127 310.212 332.621C309.068 333.114 307.755 333.361 306.274 333.361C304.792 333.361 303.474 333.114 302.317 332.621C301.173 332.127 300.204 331.434 299.409 330.543C298.626 329.64 298.03 328.586 297.62 327.381C297.211 326.165 297.006 324.846 297.006 323.425ZM302.209 323.045V323.425C302.209 324.244 302.281 325.009 302.426 325.719C302.57 326.43 302.799 327.056 303.112 327.598C303.438 328.128 303.859 328.544 304.377 328.845C304.895 329.146 305.527 329.296 306.274 329.296C306.997 329.296 307.617 329.146 308.135 328.845C308.653 328.544 309.068 328.128 309.381 327.598C309.694 327.056 309.923 326.43 310.068 325.719C310.224 325.009 310.303 324.244 310.303 323.425V323.045C310.303 322.25 310.224 321.504 310.068 320.805C309.923 320.095 309.688 319.468 309.363 318.926C309.05 318.372 308.635 317.939 308.117 317.625C307.599 317.312 306.972 317.156 306.238 317.156C305.503 317.156 304.877 317.312 304.359 317.625C303.853 317.939 303.438 318.372 303.112 318.926C302.799 319.468 302.57 320.095 302.426 320.805C302.281 321.504 302.209 322.25 302.209 323.045ZM324.304 327.941L328.369 313.452H331.675L330.609 319.143L326.544 333H323.78L324.304 327.941ZM322.245 313.452L325.153 327.923L325.424 333H322.172L317.222 313.452H322.245ZM335.397 327.688L338.233 313.452H343.274L338.324 333H335.09L335.397 327.688ZM332.127 313.452L336.174 327.833L336.734 333H333.952L329.887 319.161L328.857 313.452H332.127ZM351.693 330.796L356.878 313.452H362.46L354.602 335.945C354.433 336.439 354.204 336.969 353.915 337.535C353.638 338.101 353.259 338.637 352.777 339.143C352.307 339.66 351.711 340.082 350.988 340.407C350.278 340.732 349.404 340.895 348.369 340.895C347.875 340.895 347.471 340.865 347.158 340.805C346.845 340.744 346.472 340.66 346.038 340.552V336.74C346.171 336.74 346.309 336.74 346.454 336.74C346.598 336.752 346.737 336.758 346.869 336.758C347.556 336.758 348.116 336.68 348.549 336.523C348.983 336.366 349.332 336.125 349.597 335.8C349.862 335.487 350.073 335.078 350.229 334.572L351.693 330.796ZM349.525 313.452L353.771 327.616L354.511 333.126L350.97 333.506L343.942 313.452H349.525Z" fill="url(#paint0_radial_8_11)"/>
    <path d="M197.211 141.812H226.41V235.758C226.41 246.695 224.066 255.908 219.379 263.395C214.757 270.882 208.344 276.513 200.141 280.289C192.003 284.065 182.628 285.953 172.016 285.953C161.404 285.953 151.964 284.065 143.695 280.289C135.492 276.513 129.047 270.882 124.359 263.395C119.737 255.908 117.426 246.695 117.426 235.758V141.812H146.723V235.758C146.723 242.138 147.732 247.346 149.75 251.383C151.768 255.419 154.665 258.382 158.441 260.27C162.283 262.158 166.807 263.102 172.016 263.102C177.354 263.102 181.879 262.158 185.59 260.27C189.366 258.382 192.23 255.419 194.184 251.383C196.202 247.346 197.211 242.138 197.211 235.758V141.812ZM244.281 232.242V230.191C244.281 222.444 245.388 215.315 247.602 208.805C249.815 202.229 253.038 196.533 257.27 191.715C261.501 186.897 266.71 183.154 272.895 180.484C279.079 177.75 286.176 176.383 294.184 176.383C302.191 176.383 309.32 177.75 315.57 180.484C321.82 183.154 327.061 186.897 331.293 191.715C335.59 196.533 338.845 202.229 341.059 208.805C343.272 215.315 344.379 222.444 344.379 230.191V232.242C344.379 239.924 343.272 247.053 341.059 253.629C338.845 260.139 335.59 265.836 331.293 270.719C327.061 275.536 321.853 279.28 315.668 281.949C309.483 284.618 302.387 285.953 294.379 285.953C286.371 285.953 279.242 284.618 272.992 281.949C266.807 279.28 261.566 275.536 257.27 270.719C253.038 265.836 249.815 260.139 247.602 253.629C245.388 247.053 244.281 239.924 244.281 232.242ZM272.406 230.191V232.242C272.406 236.669 272.797 240.803 273.578 244.645C274.359 248.486 275.596 251.871 277.289 254.801C279.047 257.665 281.326 259.911 284.125 261.539C286.924 263.167 290.342 263.98 294.379 263.98C298.285 263.98 301.638 263.167 304.438 261.539C307.237 259.911 309.483 257.665 311.176 254.801C312.868 251.871 314.105 248.486 314.887 244.645C315.733 240.803 316.156 236.669 316.156 232.242V230.191C316.156 225.895 315.733 221.858 314.887 218.082C314.105 214.241 312.836 210.855 311.078 207.926C309.385 204.931 307.139 202.587 304.34 200.895C301.54 199.202 298.155 198.355 294.184 198.355C290.212 198.355 286.827 199.202 284.027 200.895C281.293 202.587 279.047 204.931 277.289 207.926C275.596 210.855 274.359 214.241 273.578 218.082C272.797 221.858 272.406 225.895 272.406 230.191Z" fill="url(#paint1_radial_8_11)"/>
    <defs>
        <radialGradient id="paint0_radial_8_11" cx="0" cy="0" r="1" gradientUnits="userSpaceOnUse" gradientTransform="translate(228 320.5) rotate(90) scale(21.5 135)">
            <stop stop-color="#0E81FA"/>
            <stop offset="1" stop-color="#005EBE"/>
        </radialGradient>
        <radialGradient id="paint1_radial_8_11" cx="0" cy="0" r="1" gradientUnits="userSpaceOnUse" gradientTransform="translate(228.5 216) rotate(90) scale(117 122.5)">
            <stop stop-color="#0E81FA"/>
            <stop offset="1" stop-color="#005EBE"/>
        </radialGradient>
    </defs>
</svg>